<svg width="97" height="366" viewBox="0 0 97 366" fill="none" xmlns="http://www.w3.org/2000/svg">
<path opacity="0.3" d="M1 1L5 5L9 1" stroke="#F8F8F8" stroke-width="1.5" stroke-linejoin="round"/>
<path d="M8.5 31.4731C7.25401 31.4731 6.05906 30.9741 5.17801 30.0858C4.29697 29.1976 3.802 27.9928 3.802 26.7366C3.802 25.4804 4.29697 24.2756 5.17801 23.3873C6.05906 22.499 7.25401 22 8.5 22C9.74599 22 10.9409 22.499 11.822 23.3873C12.703 24.2756 13.198 25.4804 13.198 26.7366C13.198 27.9928 12.703 29.1976 11.822 30.0858C10.9409 30.9741 9.74599 31.4731 8.5 31.4731ZM8.5 23.8946C8.12983 23.8946 7.76328 23.9681 7.42129 24.111C7.0793 24.2538 6.76856 24.4631 6.50681 24.727C6.24506 24.9909 6.03743 25.3042 5.89577 25.649C5.75411 25.9938 5.6812 26.3634 5.6812 26.7366C5.6812 27.1098 5.75411 27.4793 5.89577 27.8241C6.03743 28.1689 6.24506 28.4822 6.50681 28.7461C6.76856 29.01 7.0793 29.2194 7.42129 29.3622C7.76328 29.505 8.12983 29.5785 8.5 29.5785C9.24759 29.5785 9.96457 29.2791 10.4932 28.7461C11.0218 28.2132 11.3188 27.4903 11.3188 26.7366C11.3188 25.9828 11.0218 25.26 10.4932 24.727C9.96457 24.194 9.24759 23.8946 8.5 23.8946ZM16.9564 38.7675C17.002 38.9129 17.012 39.0673 16.9857 39.2176C16.9593 39.3678 16.8974 39.5094 16.8052 39.6303C16.7129 39.7512 16.5931 39.8478 16.4558 39.912C16.3185 39.9762 16.1679 40.0061 16.0168 39.999H0.983198C0.832058 40.0061 0.681458 39.9762 0.544204 39.912C0.40695 39.8478 0.287102 39.7512 0.194851 39.6303C0.1026 39.5094 0.0406744 39.3678 0.0143407 39.2176C-0.011993 39.0673 -0.00195614 38.9129 0.0435977 38.7675C0.654336 37.0043 1.79948 35.4793 3.31704 34.4083C4.8346 33.3373 6.64775 32.7744 8.5 32.7994C10.3523 32.7744 12.1654 33.3373 13.683 34.4083C15.2005 35.4793 16.3457 37.0043 16.9564 38.7675ZM2.3926 38.1044H14.6074C13.9711 37.0455 13.0748 36.17 12.0049 35.5624C10.9351 34.9548 9.72791 34.6355 8.5 34.6355C7.27209 34.6355 6.06492 34.9548 4.99508 35.5624C3.92525 36.17 3.0289 37.0455 2.3926 38.1044Z" fill="#F8F8F8"/>
<path d="M58.5 31.4731C57.254 31.4731 56.0591 30.9741 55.178 30.0858C54.297 29.1976 53.802 27.9928 53.802 26.7366C53.802 25.4804 54.297 24.2756 55.178 23.3873C56.0591 22.499 57.254 22 58.5 22C59.746 22 60.9409 22.499 61.822 23.3873C62.703 24.2756 63.198 25.4804 63.198 26.7366C63.198 27.9928 62.703 29.1976 61.822 30.0858C60.9409 30.9741 59.746 31.4731 58.5 31.4731ZM58.5 23.8946C58.1298 23.8946 57.7633 23.9681 57.4213 24.111C57.0793 24.2538 56.7686 24.4631 56.5068 24.727C56.2451 24.9909 56.0374 25.3042 55.8958 25.649C55.7541 25.9938 55.6812 26.3634 55.6812 26.7366C55.6812 27.1098 55.7541 27.4793 55.8958 27.8241C56.0374 28.1689 56.2451 28.4822 56.5068 28.7461C56.7686 29.01 57.0793 29.2194 57.4213 29.3622C57.7633 29.505 58.1298 29.5785 58.5 29.5785C59.2476 29.5785 59.9646 29.2791 60.4932 28.7461C61.0218 28.2132 61.3188 27.4903 61.3188 26.7366C61.3188 25.9828 61.0218 25.26 60.4932 24.727C59.9646 24.194 59.2476 23.8946 58.5 23.8946ZM66.9564 38.7675C67.002 38.9129 67.012 39.0673 66.9857 39.2176C66.9593 39.3678 66.8974 39.5094 66.8052 39.6303C66.7129 39.7512 66.5931 39.8478 66.4558 39.912C66.3185 39.9762 66.1679 40.0061 66.0168 39.999H50.9832C50.8321 40.0061 50.6815 39.9762 50.5442 39.912C50.4069 39.8478 50.2871 39.7512 50.1949 39.6303C50.1026 39.5094 50.0407 39.3678 50.0143 39.2176C49.988 39.0673 49.998 38.9129 50.0436 38.7675C50.6543 37.0043 51.7995 35.4793 53.317 34.4083C54.8346 33.3373 56.6477 32.7744 58.5 32.7994C60.3523 32.7744 62.1654 33.3373 63.683 34.4083C65.2005 35.4793 66.3457 37.0043 66.9564 38.7675ZM52.3926 38.1044H64.6074C63.9711 37.0455 63.0748 36.17 62.0049 35.5624C60.9351 34.9548 59.7279 34.6355 58.5 34.6355C57.2721 34.6355 56.0649 34.9548 54.9951 35.5624C53.9252 36.17 53.0289 37.0455 52.3926 38.1044Z" fill="#EF0A0F"/>
<path d="M14.5 71.3979L5.5 66.2079M1.27 68.9579L10 74.0079L18.73 68.9579M10 84.0779V73.9979M19 77.9979V69.9979C18.9996 69.6472 18.9071 69.3028 18.7315 68.9991C18.556 68.6955 18.3037 68.4433 18 68.2679L11 64.2679C10.696 64.0924 10.3511 64 10 64C9.64893 64 9.30404 64.0924 9 64.2679L2 68.2679C1.69626 68.4433 1.44398 68.6955 1.26846 68.9991C1.09294 69.3028 1.00036 69.6472 1 69.9979V77.9979C1.00036 78.3487 1.09294 78.6931 1.26846 78.9968C1.44398 79.3004 1.69626 79.5526 2 79.7279L9 83.7279C9.30404 83.9035 9.64893 83.9959 10 83.9959C10.3511 83.9959 10.696 83.9035 11 83.7279L18 79.7279C18.3037 79.5526 18.556 79.3004 18.7315 78.9968C18.9071 78.6931 18.9996 78.3487 19 77.9979Z" stroke="#F8F8F8" stroke-width="1.5" stroke-linecap="round" stroke-linejoin="round"/>
<path d="M64.5 71.3979L55.5 66.2079M51.27 68.9579L60 74.0079L68.73 68.9579M60 84.0779V73.9979M69 77.9979V69.9979C68.9996 69.6472 68.9071 69.3028 68.7315 68.9991C68.556 68.6955 68.3037 68.4433 68 68.2679L61 64.2679C60.696 64.0924 60.3511 64 60 64C59.6489 64 59.304 64.0924 59 64.2679L52 68.2679C51.6963 68.4433 51.444 68.6955 51.2685 68.9991C51.0929 69.3028 51.0004 69.6472 51 69.9979V77.9979C51.0004 78.3487 51.0929 78.6931 51.2685 78.9968C51.444 79.3004 51.6963 79.5526 52 79.7279L59 83.7279C59.304 83.9035 59.6489 83.9959 60 83.9959C60.3511 83.9959 60.696 83.9035 61 83.7279L68 79.7279C68.3037 79.5526 68.556 79.3004 68.7315 78.9968C68.9071 78.6931 68.9996 78.3487 69 77.9979Z" stroke="#EF0A0F" stroke-width="1.5" stroke-linecap="round" stroke-linejoin="round"/>
<path d="M4.92188 119.326H3.30098C3.5748 115.594 6.69892 112.641 10.5 112.641C13.5078 112.641 16.2296 114.535 17.2727 117.355C17.4299 117.78 17.9017 117.997 18.3267 117.84C18.7516 117.682 18.9686 117.211 18.8114 116.786C18.1897 115.105 17.0852 113.667 15.6174 112.627C14.1158 111.562 12.3462 111 10.5 111C8.1336 111 5.90879 111.922 4.23548 113.595C2.58398 115.246 1.66544 117.435 1.64173 119.767C0.661377 120.335 0 121.395 0 122.607V125.396C0 127.206 1.47197 128.678 3.28125 128.678H4.92188C5.37493 128.678 5.74219 128.31 5.74219 127.857V120.146C5.74219 119.693 5.37493 119.326 4.92188 119.326ZM4.10156 127.037H3.28125C2.37661 127.037 1.64062 126.301 1.64062 125.396V122.607C1.64062 121.703 2.37661 120.967 3.28125 120.967H4.10156V127.037Z" fill="#F8F8F8"/>
<path d="M17.7188 119.326H16.0781C15.6251 119.326 15.2578 119.693 15.2578 120.146V128.719C15.2578 129.171 14.8898 129.539 14.4375 129.539H11.9355V129.565C11.6557 129.06 11.1179 128.719 10.5 128.719C9.59392 128.719 8.85938 129.453 8.85938 130.359C8.85938 131.265 9.59392 132 10.5 132C11.1179 132 11.6557 131.658 11.9355 131.154V131.18H14.4375C15.7945 131.18 16.8984 130.076 16.8984 128.719V128.678H17.7188C19.528 128.678 21 127.206 21 125.396V122.607C21 120.798 19.528 119.326 17.7188 119.326ZM19.3594 125.396C19.3594 126.301 18.6234 127.037 17.7188 127.037H16.8984V120.967H17.7188C18.6234 120.967 19.3594 121.703 19.3594 122.607V125.396Z" fill="#F8F8F8"/>
<path d="M54.9219 119.326H53.301C53.5748 115.594 56.6989 112.641 60.5 112.641C63.5078 112.641 66.2296 114.535 67.2727 117.355C67.4299 117.78 67.9017 117.997 68.3267 117.84C68.7516 117.682 68.9686 117.211 68.8114 116.786C68.1897 115.105 67.0852 113.667 65.6174 112.627C64.1158 111.562 62.3462 111 60.5 111C58.1336 111 55.9088 111.922 54.2355 113.595C52.584 115.246 51.6654 117.435 51.6417 119.767C50.6614 120.335 50 121.395 50 122.607V125.396C50 127.206 51.472 128.678 53.2812 128.678H54.9219C55.3749 128.678 55.7422 128.31 55.7422 127.857V120.146C55.7422 119.693 55.3749 119.326 54.9219 119.326ZM54.1016 127.037H53.2812C52.3766 127.037 51.6406 126.301 51.6406 125.396V122.607C51.6406 121.703 52.3766 120.967 53.2812 120.967H54.1016V127.037Z" fill="#EF0A0F"/>
<path d="M67.7188 119.326H66.0781C65.6251 119.326 65.2578 119.693 65.2578 120.146V128.719C65.2578 129.171 64.8898 129.539 64.4375 129.539H61.9355V129.565C61.6557 129.06 61.1179 128.719 60.5 128.719C59.5939 128.719 58.8594 129.453 58.8594 130.359C58.8594 131.265 59.5939 132 60.5 132C61.1179 132 61.6557 131.658 61.9355 131.154V131.18H64.4375C65.7945 131.18 66.8984 130.076 66.8984 128.719V128.678H67.7188C69.528 128.678 71 127.206 71 125.396V122.607C71 120.798 69.528 119.326 67.7188 119.326ZM69.3594 125.396C69.3594 126.301 68.6234 127.037 67.7188 127.037H66.8984V120.967H67.7188C68.6234 120.967 69.3594 121.703 69.3594 122.607V125.396Z" fill="#EF0A0F"/>
<path d="M19.2629 160.929H16.2162V162.376H18.5258V176.553H1.47422V162.376H3.78379V160.929H0.737109C0.329961 160.929 0 161.253 0 161.652V177.277C0 177.676 0.329961 178 0.737109 178H19.2629C19.6703 178 20 177.676 20 177.277V161.652C20 161.253 19.67 160.929 19.2629 160.929Z" fill="#EF0A0F"/>
<path d="M13.8532 160.93L6.16259 160.977L6.17187 162.424L13.8625 162.377L13.8532 160.93Z" fill="#EF0A0F"/>
<path d="M19.1892 165.775H0.81082V167.222H19.1892V165.775Z" fill="#EF0A0F"/>
<path d="M6.16707 159H3.78379C3.37668 159 3.04668 159.324 3.04668 159.723V163.581C3.04668 163.981 3.37664 164.305 3.78379 164.305H6.16707C6.57418 164.305 6.90418 163.981 6.90418 163.581V159.723C6.90418 159.324 6.57422 159 6.16707 159ZM5.42996 162.858H4.52086V160.447H5.42996V162.858Z" fill="#EF0A0F"/>
<path d="M16.2408 159H13.8575C13.4504 159 13.1204 159.324 13.1204 159.723V163.581C13.1204 163.981 13.4504 164.305 13.8575 164.305H16.2408C16.6479 164.305 16.9779 163.981 16.9779 163.581V159.723C16.9779 159.324 16.6479 159 16.2408 159ZM15.5037 162.858H14.5946V160.447H15.5037V162.858Z" fill="#EF0A0F"/>
<path d="M14.8568 168.434C14.5754 168.145 14.1086 168.135 13.8147 168.411L8.73367 173.179L6.19684 170.689C5.90887 170.407 5.44203 170.406 5.15434 170.689C4.8666 170.971 4.8666 171.429 5.15434 171.712L8.20102 174.702C8.345 174.843 8.53344 174.914 8.72238 174.914C8.90566 174.914 9.08922 174.847 9.23148 174.713L14.8334 169.457C15.1278 169.181 15.1383 168.723 14.8568 168.434Z" fill="#EF0A0F"/>
<path d="M1 210L4.42857 213L9 208" stroke="white" stroke-width="1.5"/>
</svg>
